<svg width="60" height="70" viewBox="0 0 60 70" fill="none" xmlns="http://www.w3.org/2000/svg">
<path d="M51.6 23.8H6.8C4.14903 23.8 2 25.949 2 28.6V63C2 65.651 4.14903 67.8 6.8 67.8H51.6C54.251 67.8 56.4 65.651 56.4 63V28.6C56.4 25.949 54.251 23.8 51.6 23.8Z" stroke="#C9A44A" stroke-width="4" stroke-linecap="round" stroke-linejoin="round"/>
<path d="M40.4 37.4H18C16.6745 37.4 15.6 38.4745 15.6 39.8V51.8C15.6 53.1255 16.6745 54.2 18 54.2H40.4C41.7255 54.2 42.8 53.1255 42.8 51.8V39.8C42.8 38.4745 41.7255 37.4 40.4 37.4Z" stroke="#C9A44A" stroke-width="4" stroke-linecap="round" stroke-linejoin="round"/>
<path d="M42.8 15.8H15.6C14.7163 15.8 14 16.5163 14 17.4V22.2C14 23.0836 14.7163 23.8 15.6 23.8H42.8C43.6837 23.8 44.4 23.0836 44.4 22.2V17.4C44.4 16.5163 43.6837 15.8 42.8 15.8Z" stroke="#C9A44A" stroke-width="4" stroke-linecap="round" stroke-linejoin="round"/>
<path d="M37.2 6.20001H21.2C20.3163 6.20001 19.6 6.91636 19.6 7.80001V14.2C19.6 15.0837 20.3163 15.8 21.2 15.8H37.2C38.0836 15.8 38.8 15.0837 38.8 14.2V7.80001C38.8 6.91636 38.0836 6.20001 37.2 6.20001Z" stroke="#C9A44A" stroke-width="4" stroke-linecap="round" stroke-linejoin="round"/>
<path d="M50.4 2L52.4 7.6L58 9.6L52.4 11.6L50.4 17.2L48.4 11.6L42.8 9.6L48.4 7.6L50.4 2Z" stroke="#C9A44A" stroke-width="4" stroke-linecap="round" stroke-linejoin="round"/>
</svg>
