<svg width="440" height="8" viewBox="0 0 440 8" fill="none" xmlns="http://www.w3.org/2000/svg">
<path d="M193.568 6.15112C183.867 5.68132 176.231 7.68072 164.407 7.33284C152.584 6.98868 150.813 5.96319 137.272 6.12838C123.731 6.27274 110.183 5.54768 104.154 5.88619C98.1251 6.20691 97.4888 5.10691 88.9272 5.30366C80.366 5.48742 75.1772 5.29985 67.6898 4.95154C60.2019 4.5868 37.198 4.32529 28.8332 4.57142C20.4683 4.79325 10.9276 4.27228 5.1899 4.18668C3.4027 4.15407 1.99622 4.11448 0.917926 4.07587C0.461241 4.05945 0.250102 4.02651 0.25 3.99408C0.25 3.99406 0.25 3.99404 0.25 3.99402C0.250134 3.95369 0.577383 3.91361 1.16441 3.90754C4.01408 3.87772 8.27313 3.8066 13.3046 3.60917C22.686 3.21803 23.7113 3.60007 36.3795 3.33942C49.0476 3.07009 56.6588 2.47999 71.5644 2.70561C86.4698 2.99351 89.8935 1.35128 110.934 2.13511C131.974 3.02179 134.189 1.14985 155.156 0.731997C176.123 0.32266 202.59 1.42632 215.23 1.33468C216.758 1.32246 218.35 1.30826 220 1.29336C231.989 1.1836 247.012 1.04454 262.763 1.33442C280.681 1.64683 302.8 1.11262 322.578 1.70436C342.357 2.28242 370.319 2.94916 383.237 3.27472C396.155 3.60917 399.304 3.64133 411.738 3.55562C418.885 3.50584 428.731 3.65046 437.048 3.87857C441.233 3.99237 440.285 4.12221 436.072 4.20895C429.911 4.33859 424.854 4.27769 421.68 4.51812C415.337 5.00815 412.641 5.27323 404.634 5.03871C396.627 4.78051 392.854 5.56431 388.187 5.53419C383.519 5.49785 383.596 4.9856 359.862 5.57139C336.129 6.19046 323.118 6.44072 314.13 6.62195C305.142 6.82016 286.375 6.32642 271.727 6.5934C258.735 6.84668 233.838 6.7546 220 6.97951C218.237 7.00894 216.653 7.04412 215.297 7.08673C203.293 7.46107 203.268 6.62511 193.568 6.15112Z" fill="url(#paint0_linear_101_181)"/>
<defs>
<linearGradient id="paint0_linear_101_181" x1="0.25" y1="4.5" x2="439.75" y2="4.5" gradientUnits="userSpaceOnUse">
<stop stop-color="#D4AF37"/>
<stop offset="0.504808" stop-color="#B8860B"/>
<stop offset="1" stop-color="#D4AF37"/>
</linearGradient>
</defs>
</svg>
