<svg width="60" height="60" viewBox="0 0 60 60" fill="none" xmlns="http://www.w3.org/2000/svg">
<path d="M30.0001 13.1899C33.5687 13.1899 36.4617 10.6402 36.4617 7.49496C36.4617 4.34975 33.5687 1.80005 30.0001 1.80005C26.4315 1.80005 23.5386 4.34975 23.5386 7.49496C23.5386 10.6402 26.4315 13.1899 30.0001 13.1899Z" stroke="#C9A44A" stroke-width="3" stroke-linecap="round" stroke-linejoin="round"/>
<path d="M8.46154 57.8002C12.0301 57.8002 14.9231 55.2505 14.9231 52.1053C14.9231 48.9601 12.0301 46.4104 8.46154 46.4104C4.89293 46.4104 2 48.9601 2 52.1053C2 55.2505 4.89293 57.8002 8.46154 57.8002Z" stroke="#C9A44A" stroke-width="3" stroke-linecap="round" stroke-linejoin="round"/>
<path d="M51.5386 57.8002C55.1072 57.8002 58.0002 55.2505 58.0002 52.1053C58.0002 48.9601 55.1072 46.4104 51.5386 46.4104C47.97 46.4104 45.0771 48.9601 45.0771 52.1053C45.0771 55.2505 47.97 57.8002 51.5386 57.8002Z" stroke="#C9A44A" stroke-width="3" stroke-linecap="round" stroke-linejoin="round"/>
<path d="M30.0001 40.7157C34.7582 40.7157 38.6155 37.3161 38.6155 33.1225C38.6155 28.9289 34.7582 25.5293 30.0001 25.5293C25.2419 25.5293 21.3847 28.9289 21.3847 33.1225C21.3847 37.3161 25.2419 40.7157 30.0001 40.7157Z" stroke="#C9A44A" stroke-width="3" stroke-linecap="round" stroke-linejoin="round"/>
<path d="M30 14.1384V25.5283" stroke="#C9A44A" stroke-width="3" stroke-linecap="round" stroke-linejoin="round"/>
<path d="M22.4614 38.8174L12.7691 47.3598" stroke="#C9A44A" stroke-width="3" stroke-linecap="round" stroke-linejoin="round"/>
<path d="M36.4614 38.8174L46.1537 47.3598" stroke="#C9A44A" stroke-width="3" stroke-linecap="round" stroke-linejoin="round"/>
</svg>
