<svg width="82" height="50" viewBox="0 0 82 50" fill="none" xmlns="http://www.w3.org/2000/svg">
<path d="M22.0214 17.016C33.0789 17.016 42.0428 13.6546 42.0428 9.50802C42.0428 5.36146 33.0789 2 22.0214 2C10.9639 2 2 5.36146 2 9.50802C2 13.6546 10.9639 17.016 22.0214 17.016Z" stroke="#C9A44A" stroke-width="4" stroke-linecap="round" stroke-linejoin="round"/>
<path d="M2 9.50806V36.2032C2 40.3744 10.9679 43.7113 22.0214 43.7113C33.0749 43.7113 42.0428 40.3744 42.0428 36.2032V9.50806" stroke="#C9A44A" stroke-width="4" stroke-linecap="round" stroke-linejoin="round"/>
<path d="M2 19.5187C2 23.6898 10.9679 27.0267 22.0214 27.0267C33.0749 27.0267 42.0428 23.6898 42.0428 19.5187M2 29.5294C2 33.7005 10.9679 37.0374 22.0214 37.0374C33.0749 37.0374 42.0428 33.7005 42.0428 29.5294M2 39.5401C2 43.7112 10.9679 47.0481 22.0214 47.0481C33.0749 47.0481 42.0428 43.7112 42.0428 39.5401" stroke="#C9A44A" stroke-width="4" stroke-linecap="round" stroke-linejoin="round"/>
<path d="M53.7219 33.7006C58.3102 26.6097 62.4813 22.8557 68.738 22.8557C74.9947 22.8557 80 27.8611 80 34.1177C80 40.3744 74.9947 45.3798 68.738 45.3798C62.4813 45.3798 58.3102 41.6258 53.7219 34.5349C49.1337 41.6258 44.9626 45.3798 38.7059 45.3798C32.4492 45.3798 27.4438 40.3744 27.4438 34.1177C27.4438 27.8611 32.4492 22.8557 38.7059 22.8557C44.9626 22.8557 49.1337 26.6097 53.7219 33.7006Z" stroke="#C9A44A" stroke-width="4" stroke-linecap="round" stroke-linejoin="round"/>
</svg>
