<svg width="68" height="68" viewBox="0 0 68 68" fill="none" xmlns="http://www.w3.org/2000/svg">
<path d="M34 66C51.6731 66 66 51.6731 66 34C66 16.3269 51.6731 2 34 2C16.3269 2 2 16.3269 2 34C2 51.6731 16.3269 66 34 66Z" stroke="#C9A44A" stroke-width="4" stroke-linecap="round" stroke-linejoin="round"/>
<path d="M34.4898 25.5102C29.2653 25.5102 25.0204 21.2653 25.0204 16.0408C25.0204 10.8163 29.2653 6.57141 34.4898 6.57141C39.7143 6.57141 43.9592 10.8163 43.9592 16.0408C43.9592 21.2653 39.7143 25.5102 34.4898 25.5102Z" stroke="#C9A44A" stroke-width="4" stroke-linecap="round" stroke-linejoin="round"/>
<path d="M18.9796 56.5306C20.2857 47.3878 26.8163 41.8367 34 41.8367C41.1837 41.8367 47.7143 47.3878 49.0204 56.5306H18.9796Z" stroke="#C9A44A" stroke-width="4" stroke-linecap="round" stroke-linejoin="round"/>
<path d="M17.0205 34.6531C13.1021 34.6531 9.83679 31.3877 9.83679 27.4694C9.83679 23.551 13.1021 20.2857 17.0205 20.2857" stroke="#C9A44A" stroke-width="4" stroke-linecap="round" stroke-linejoin="round"/>
<path d="M18 34.6531C21.9184 34.6531 25.1837 31.3877 25.1837 27.4694C25.1837 23.551 21.9184 20.2857 18 20.2857" stroke="#C9A44A" stroke-width="4" stroke-linecap="round" stroke-linejoin="round"/>
<path d="M7.87756 52.2857C8.85716 45.102 13.1021 40.8571 18.3265 39.551" stroke="#C9A44A" stroke-width="4" stroke-linecap="round" stroke-linejoin="round"/>
<path d="M50.9796 34.6531C54.898 34.6531 58.1633 31.3877 58.1633 27.4694C58.1633 23.551 54.898 20.2857 50.9796 20.2857" stroke="#C9A44A" stroke-width="4" stroke-linecap="round" stroke-linejoin="round"/>
<path d="M51.306 34.6531C47.3877 34.6531 44.1224 31.3877 44.1224 27.4694C44.1224 23.551 47.3877 20.2857 51.306 20.2857" stroke="#C9A44A" stroke-width="4" stroke-linecap="round" stroke-linejoin="round"/>
<path d="M60.1224 52.2857C59.1429 45.102 54.898 40.8571 49.6735 39.551" stroke="#C9A44A" stroke-width="4" stroke-linecap="round" stroke-linejoin="round"/>
</svg>
