<svg width="60" height="60" viewBox="0 0 60 60" fill="none" xmlns="http://www.w3.org/2000/svg">
<path d="M30 57.8001C45.464 57.8001 58 45.264 58 29.8001C58 14.3361 45.464 1.80005 30 1.80005C14.536 1.80005 2 14.3361 2 29.8001C2 45.264 14.536 57.8001 30 57.8001Z" stroke="#C9A44A" stroke-width="3" stroke-linecap="round" stroke-linejoin="round"/>
<path d="M30 14.2449V45.356" stroke="#C9A44A" stroke-width="3" stroke-linecap="round" stroke-linejoin="round"/>
<path d="M23.1555 42.2449H32.4888C34.1391 42.2449 35.7217 41.5893 36.8886 40.4224C38.0555 39.2555 38.7111 37.6729 38.7111 36.0227C38.7111 34.3724 38.0555 32.7898 36.8886 31.6229C35.7217 30.456 34.1391 29.8004 32.4888 29.8004H26.2666C24.6164 29.8004 23.0337 29.1449 21.8668 27.978C20.7 26.8111 20.0444 25.2284 20.0444 23.5782C20.0444 21.928 20.7 20.3453 21.8668 19.1784C23.0337 18.0115 24.6164 17.356 26.2666 17.356H38.7111" stroke="#C9A44A" stroke-width="3" stroke-linecap="round" stroke-linejoin="round"/>
<path d="M37.4667 14.2449L40.5778 17.356L37.4667 20.4671" stroke="#C9A44A" stroke-width="3" stroke-linecap="round" stroke-linejoin="round"/>
</svg>
